<svg width="420" height="264" viewBox="0 0 420 264" fill="none" xmlns="http://www.w3.org/2000/svg">
<g clip-path="url(#clip0_2_1059)">
<path d="M80.3784 159.292L202.608 138.196C203.591 138.027 204.189 139.244 203.454 139.919L146.565 192.119C146.491 192.187 146.413 192.242 146.321 192.28C141.346 194.331 121.952 186.515 111.823 181.88C111.259 181.622 110.6 181.931 110.433 182.528C108.037 191.116 105.118 199.075 103.664 202.725C103.489 203.164 103.004 203.416 102.663 203.088C99.8017 200.334 99.4348 184.218 99.6439 175.199C99.6558 174.687 99.2825 174.25 98.7788 174.155C91.283 172.748 81.0251 165.966 76.6848 162.627" stroke="#92FFBA" stroke-width="2" stroke-linecap="round"/>
<path d="M112.053 180.304C124.791 174.231 157.015 159.021 184.009 146.765" stroke="#92FFBA" stroke-width="2" stroke-linecap="round"/>
<path d="M102.296 203.475L126.078 188.23" stroke="#92FFBA" stroke-width="2" stroke-linecap="round"/>
<path d="M107.783 168.717L140.713 157.131" stroke="#92FFBA" stroke-width="2" stroke-linecap="round"/>
<path d="M89.3294 223.963C77.2349 230.498 44.2176 237.482 8.90457 213.134" stroke="#92FFBA" stroke-width="2" stroke-linecap="round"/>
<path d="M71.4177 208.98C51.2561 205.97 3.35027 187.967 -26.9799 140.04" stroke="#92FFBA" stroke-width="2" stroke-linecap="round"/>
<path d="M244.221 104.858C235.965 155.762 261.125 201.722 299.826 207.998C338.527 214.275 376.923 178.623 385.178 127.718C393.434 76.8137 368.274 30.8539 329.573 24.5774C290.873 18.3008 252.477 53.9532 244.221 104.858Z" stroke="#92FFBA" stroke-width="2"/>
<path d="M260.146 106.508C256.983 126.013 259.99 144.584 267.361 158.835C274.732 173.086 286.427 182.957 300.649 185.264C314.871 187.57 329.086 181.901 340.583 170.71C352.081 159.52 360.803 142.851 363.966 123.346C367.13 103.84 364.122 85.2695 356.751 71.0189C349.38 56.7682 337.686 46.8966 323.464 44.5901C309.242 42.2835 295.026 47.953 283.529 59.1436C272.032 70.3342 263.31 87.0028 260.146 106.508Z" stroke="#92FFBA" stroke-width="2"/>
<path d="M281.433 111.537C279.853 121.276 281.359 130.529 285.021 137.609C288.683 144.689 294.462 149.539 301.441 150.67C308.419 151.802 315.435 149.028 321.147 143.468C326.859 137.908 331.212 129.605 332.791 119.867C334.37 110.128 332.865 100.876 329.203 93.7954C325.541 86.7149 319.762 81.8657 312.783 80.7339C305.805 79.6021 298.789 82.3764 293.077 87.9364C287.365 93.4963 283.012 101.799 281.433 111.537Z" fill="#92FFBA" stroke="#92FFBA" stroke-width="2"/>
<path d="M369.183 197.989C320.399 244.943 266.127 217.502 254.541 187.927C259.701 217.428 294.659 234.165 323.753 234.881C355.768 234.881 395.709 208.355 406.686 184.268C447.078 95.6296 385.546 33.2417 354.853 24.5015C412.479 51.6374 421.614 147.524 369.183 197.989Z" fill="#92FFBA" stroke="#92FFBA" stroke-width="2" stroke-linecap="round"/>
</g>
<defs>
<clipPath id="clip0_2_1059">
<rect width="420" height="264" fill="white"/>
</clipPath>
</defs>
</svg>
