<svg width="121" height="16" viewBox="0 0 121 16" fill="none" xmlns="http://www.w3.org/2000/svg">
<path d="M114.007 15.507V4.5979H116.941V6.50131H117.054C117.253 5.82423 117.587 5.31286 118.056 4.96722C118.524 4.61684 119.064 4.44165 119.675 4.44165C119.826 4.44165 119.99 4.45112 120.165 4.47006C120.34 4.489 120.494 4.51504 120.627 4.54818V7.23284C120.485 7.19023 120.288 7.15235 120.037 7.11921C119.786 7.08606 119.557 7.06949 119.348 7.06949C118.903 7.06949 118.505 7.16656 118.155 7.36068C117.809 7.55008 117.535 7.81523 117.331 8.15614C117.132 8.49705 117.033 8.89004 117.033 9.33512V15.507H114.007Z" fill="#4DE785"/>
<path d="M107.026 15.72C105.904 15.72 104.938 15.4927 104.128 15.0382C103.323 14.5789 102.703 13.9302 102.267 13.0922C101.832 12.2494 101.614 11.2527 101.614 10.1021C101.614 8.97996 101.832 7.99511 102.267 7.14757C102.703 6.30003 103.316 5.63952 104.107 5.16604C104.902 4.69255 105.835 4.45581 106.905 4.45581C107.625 4.45581 108.295 4.57181 108.915 4.80382C109.54 5.03109 110.084 5.37437 110.548 5.83365C111.017 6.29293 111.382 6.87058 111.642 7.56661C111.903 8.25789 112.033 9.06755 112.033 9.99558V10.8265H102.821V8.95155H109.185C109.185 8.51594 109.09 8.13005 108.901 7.79388C108.711 7.4577 108.449 7.19492 108.112 7.00553C107.781 6.8114 107.395 6.71433 106.955 6.71433C106.495 6.71433 106.088 6.82087 105.733 7.03393C105.383 7.24227 105.108 7.52399 104.909 7.87911C104.71 8.22948 104.609 8.62011 104.604 9.05098V10.8337C104.604 11.3734 104.703 11.8398 104.902 12.2328C105.106 12.6258 105.392 12.9288 105.761 13.1419C106.131 13.355 106.569 13.4615 107.075 13.4615C107.412 13.4615 107.719 13.4141 107.999 13.3194C108.278 13.2247 108.517 13.0827 108.716 12.8933C108.915 12.7039 109.066 12.4719 109.171 12.1973L111.969 12.3819C111.827 13.0543 111.536 13.6414 111.095 14.1433C110.66 14.6405 110.096 15.0287 109.405 15.3081C108.718 15.5827 107.925 15.72 107.026 15.72Z" fill="#4DE785"/>
<path d="M100.2 4.59801V6.87074H93.6309V4.59801H100.2ZM95.1223 1.98438H98.1479V12.1548C98.1479 12.4342 98.1905 12.652 98.2757 12.8082C98.361 12.9598 98.4793 13.0663 98.6309 13.1278C98.7871 13.1894 98.967 13.2202 99.1706 13.2202C99.3127 13.2202 99.4547 13.2083 99.5968 13.1847C99.7388 13.1563 99.8477 13.1349 99.9235 13.1207L100.399 15.3722C100.248 15.4195 100.035 15.474 99.7601 15.5355C99.4855 15.6018 99.1517 15.642 98.7587 15.6562C98.0295 15.6847 97.3903 15.5876 96.8411 15.3651C96.2966 15.1425 95.8728 14.7969 95.5698 14.3281C95.2668 13.8594 95.1176 13.2675 95.1223 12.5526V1.98438Z" fill="#4DE785"/>
<path d="M92.5498 4.59797V6.8707H85.8169V4.59797H92.5498ZM87.3581 15.5071V3.80961C87.3581 3.01889 87.512 2.36312 87.8197 1.84229C88.1322 1.32145 88.5584 0.930827 89.0981 0.67041C89.6379 0.409993 90.2511 0.279785 90.9376 0.279785C91.4016 0.279785 91.8254 0.315297 92.2089 0.38632C92.5972 0.457343 92.886 0.521263 93.0754 0.578081L92.5356 2.85081C92.4173 2.81293 92.2705 2.77742 92.0953 2.74427C91.9248 2.71113 91.7497 2.69456 91.5697 2.69456C91.1247 2.69456 90.8145 2.79873 90.6393 3.00706C90.4641 3.21066 90.3765 3.49712 90.3765 3.86643V15.5071H87.3581Z" fill="#4DE785"/>
<path d="M78.1925 15.7129C77.4965 15.7129 76.8762 15.5922 76.3317 15.3507C75.7872 15.1045 75.3563 14.7423 75.0391 14.264C74.7266 13.7811 74.5703 13.1798 74.5703 12.4601C74.5703 11.854 74.6816 11.345 74.9041 10.9331C75.1267 10.5212 75.4297 10.1897 75.8132 9.93876C76.1967 9.68782 76.6323 9.49842 77.12 9.37058C77.6124 9.24274 78.1286 9.15278 78.6683 9.1007C79.3028 9.03441 79.8142 8.97286 80.2024 8.91604C80.5907 8.85448 80.8724 8.76452 81.0476 8.64615C81.2228 8.52778 81.3104 8.35259 81.3104 8.12058V8.07797C81.3104 7.62816 81.1683 7.28015 80.8842 7.03393C80.6049 6.78772 80.2072 6.66462 79.6911 6.66462C79.1465 6.66462 78.7133 6.78536 78.3913 7.02683C78.0694 7.26358 77.8563 7.56187 77.7521 7.92172L74.9538 7.69445C75.0959 7.03157 75.3752 6.45865 75.7919 5.9757C76.2086 5.48801 76.746 5.11395 77.4041 4.85354C78.067 4.58839 78.834 4.45581 79.7053 4.45581C80.3113 4.45581 80.8913 4.52683 81.4453 4.66888C82.004 4.81092 82.4988 5.03109 82.9297 5.32939C83.3653 5.62768 83.7086 6.01121 83.9595 6.47996C84.2105 6.94397 84.3359 7.50032 84.3359 8.14899V15.5069H81.4666V13.9942H81.3814C81.2062 14.3351 80.9718 14.6357 80.6783 14.8962C80.3847 15.1518 80.032 15.3531 79.62 15.4998C79.2081 15.6419 78.7322 15.7129 78.1925 15.7129ZM79.059 13.6248C79.504 13.6248 79.897 13.5372 80.2379 13.3621C80.5788 13.1821 80.8464 12.9407 81.0405 12.6376C81.2346 12.3346 81.3317 11.9913 81.3317 11.6078V10.4501C81.237 10.5117 81.1068 10.5685 80.9411 10.6206C80.7801 10.6679 80.5978 10.7129 80.3942 10.7555C80.1906 10.7934 79.987 10.8289 79.7834 10.8621C79.5798 10.8905 79.3951 10.9165 79.2294 10.9402C78.8743 10.9923 78.5642 11.0751 78.299 11.1888C78.0339 11.3024 77.8279 11.4563 77.6811 11.6504C77.5343 11.8398 77.4609 12.0765 77.4609 12.3606C77.4609 12.7726 77.6101 13.0874 77.9084 13.3052C78.2114 13.5183 78.5949 13.6248 79.059 13.6248Z" fill="#4DE785"/>
<path d="M67.2104 15.507V4.5979H70.1437V6.50131H70.2573C70.4562 5.82423 70.79 5.31286 71.2587 4.96722C71.7275 4.61684 72.2673 4.44165 72.8781 4.44165C73.0296 4.44165 73.1929 4.45112 73.3681 4.47006C73.5433 4.489 73.6972 4.51504 73.8298 4.54818V7.23284C73.6877 7.19023 73.4912 7.15235 73.2403 7.11921C72.9893 7.08606 72.7597 7.06949 72.5514 7.06949C72.1063 7.06949 71.7085 7.16656 71.3582 7.36068C71.0125 7.55008 70.7379 7.81523 70.5343 8.15614C70.3354 8.49705 70.236 8.89004 70.236 9.33512V15.507H67.2104Z" fill="#4DE785"/>
<path d="M65.0621 6.05389H61.9514C61.8945 5.65143 61.7785 5.29395 61.6033 4.98145C61.4282 4.66421 61.2032 4.39432 60.9286 4.17179C60.654 3.94925 60.3368 3.77879 59.9769 3.66042C59.6218 3.54205 59.2359 3.48287 58.8192 3.48287C58.0664 3.48287 57.4106 3.66989 56.8519 4.04395C56.2932 4.41326 55.86 4.95304 55.5522 5.66326C55.2444 6.36876 55.0906 7.22576 55.0906 8.23429C55.0906 9.27122 55.2444 10.1424 55.5522 10.8479C55.8647 11.5534 56.3003 12.0861 56.859 12.4459C57.4177 12.8058 58.064 12.9857 58.7979 12.9857C59.2099 12.9857 59.591 12.9313 59.9414 12.8224C60.2965 12.7135 60.6114 12.5548 60.886 12.3465C61.1606 12.1334 61.3879 11.8754 61.5678 11.5724C61.7525 11.2693 61.8803 10.9237 61.9514 10.5354L65.0621 10.5496C64.9817 11.2172 64.7804 11.8612 64.4585 12.4814C64.1412 13.097 63.7127 13.6486 63.1729 14.1363C62.6379 14.6192 61.9987 15.0028 61.2553 15.2868C60.5167 15.5662 59.681 15.7059 58.7482 15.7059C57.4509 15.7059 56.2908 15.4123 55.2681 14.8252C54.2501 14.2381 53.4452 13.3882 52.8533 12.2755C52.2662 11.1628 51.9727 9.81573 51.9727 8.23429C51.9727 6.64811 52.271 5.29868 52.8675 4.18599C53.4641 3.0733 54.2738 2.22576 55.2965 1.64338C56.3192 1.05626 57.4698 0.762695 58.7482 0.762695C59.591 0.762695 60.3723 0.881067 61.092 1.11781C61.8164 1.35455 62.458 1.7002 63.0167 2.15474C63.5754 2.60455 64.0299 3.15616 64.3803 3.80957C64.7354 4.46298 64.9627 5.21109 65.0621 6.05389Z" fill="#4DE785"/>
<path d="M45.1898 15.72C44.0676 15.72 43.1017 15.4927 42.292 15.0382C41.4871 14.5789 40.8669 13.9302 40.4312 13.0922C39.9956 12.2494 39.7778 11.2527 39.7778 10.1021C39.7778 8.97996 39.9956 7.99511 40.4312 7.14757C40.8669 6.30003 41.48 5.63952 42.2707 5.16604C43.0662 4.69255 43.999 4.45581 45.069 4.45581C45.7887 4.45581 46.4587 4.57181 47.079 4.80382C47.704 5.03109 48.2485 5.37437 48.7125 5.83365C49.1812 6.29293 49.5458 6.87058 49.8062 7.56661C50.0667 8.25789 50.1969 9.06755 50.1969 9.99558V10.8265H40.9852V8.95155H47.3489C47.3489 8.51594 47.2542 8.13005 47.0648 7.79388C46.8754 7.4577 46.6126 7.19492 46.2764 7.00553C45.945 6.8114 45.5591 6.71433 45.1187 6.71433C44.6595 6.71433 44.2523 6.82087 43.8972 7.03393C43.5468 7.24227 43.2722 7.52399 43.0733 7.87911C42.8744 8.22948 42.7726 8.62011 42.7679 9.05098V10.8337C42.7679 11.3734 42.8673 11.8398 43.0662 12.2328C43.2698 12.6258 43.5562 12.9288 43.9256 13.1419C44.2949 13.355 44.7329 13.4615 45.2395 13.4615C45.5757 13.4615 45.8834 13.4141 46.1628 13.3194C46.4421 13.2247 46.6812 13.0827 46.8801 12.8933C47.079 12.7039 47.2305 12.4719 47.3347 12.1973L50.1329 12.3819C49.9909 13.0543 49.6997 13.6414 49.2594 14.1433C48.8238 14.6405 48.2603 15.0287 47.569 15.3081C46.8825 15.5827 46.0894 15.72 45.1898 15.72Z" fill="#4DE785"/>
<path d="M31.5233 15.6847C30.6947 15.6847 29.9443 15.4716 29.2719 15.0455C28.6043 14.6146 28.074 13.9825 27.681 13.1492C27.2928 12.3111 27.0986 11.2836 27.0986 10.0668C27.0986 8.81678 27.2999 7.77748 27.7023 6.94889C28.1048 6.11555 28.6398 5.49292 29.3074 5.08099C29.9798 4.66432 30.7161 4.45599 31.5162 4.45599C32.127 4.45599 32.636 4.56016 33.0432 4.76849C33.4552 4.97209 33.7866 5.22777 34.0376 5.53553C34.2932 5.83856 34.4874 6.13686 34.6199 6.43042H34.7123V0.96167H37.7307V15.5071H34.7478V13.76H34.6199C34.4779 14.063 34.2767 14.3637 34.0162 14.662C33.7606 14.9555 33.4268 15.1994 33.0148 15.3935C32.6076 15.5876 32.1105 15.6847 31.5233 15.6847ZM32.4822 13.277C32.9698 13.277 33.3818 13.1444 33.718 12.8793C34.0589 12.6094 34.3193 12.233 34.4992 11.75C34.6839 11.2671 34.7762 10.7013 34.7762 10.0526C34.7762 9.4039 34.6862 8.84046 34.5063 8.36224C34.3264 7.88402 34.066 7.5147 33.7251 7.25428C33.3841 6.99387 32.9698 6.86366 32.4822 6.86366C31.985 6.86366 31.566 6.9986 31.2251 7.26849C30.8841 7.53837 30.6261 7.91243 30.4509 8.39065C30.2757 8.86887 30.1881 9.42284 30.1881 10.0526C30.1881 10.687 30.2757 11.2481 30.4509 11.7358C30.6308 12.2188 30.8889 12.5976 31.2251 12.8722C31.566 13.1421 31.985 13.277 32.4822 13.277Z" fill="#4DE785"/>
<path d="M20.1667 15.72C19.0635 15.72 18.1094 15.4856 17.3045 15.0169C16.5043 14.5434 15.8864 13.8853 15.4508 13.0425C15.0152 12.1949 14.7974 11.2124 14.7974 10.095C14.7974 8.96812 15.0152 7.98327 15.4508 7.14047C15.8864 6.29293 16.5043 5.63479 17.3045 5.16604C18.1094 4.69255 19.0635 4.45581 20.1667 4.45581C21.2699 4.45581 22.2216 4.69255 23.0218 5.16604C23.8267 5.63479 24.447 6.29293 24.8826 7.14047C25.3182 7.98327 25.536 8.96812 25.536 10.095C25.536 11.2124 25.3182 12.1949 24.8826 13.0425C24.447 13.8853 23.8267 14.5434 23.0218 15.0169C22.2216 15.4856 21.2699 15.72 20.1667 15.72ZM20.1809 13.3763C20.6828 13.3763 21.1018 13.2342 21.438 12.9501C21.7742 12.6613 22.0275 12.2683 22.1979 11.7712C22.3731 11.274 22.4607 10.7082 22.4607 10.0737C22.4607 9.43924 22.3731 8.87342 22.1979 8.37626C22.0275 7.87911 21.7742 7.48611 21.438 7.19729C21.1018 6.90846 20.6828 6.76405 20.1809 6.76405C19.6743 6.76405 19.2481 6.90846 18.9025 7.19729C18.5616 7.48611 18.3035 7.87911 18.1283 8.37626C17.9579 8.87342 17.8726 9.43924 17.8726 10.0737C17.8726 10.7082 17.9579 11.274 18.1283 11.7712C18.3035 12.2683 18.5616 12.6613 18.9025 12.9501C19.2481 13.2342 19.6743 13.3763 20.1809 13.3763Z" fill="#4DE785"/>
<path d="M13.0895 6.05389H9.97869C9.92188 5.65143 9.80587 5.29395 9.63068 4.98145C9.45549 4.66421 9.23059 4.39432 8.95597 4.17179C8.68134 3.94925 8.36411 3.77879 8.00426 3.66042C7.64915 3.54205 7.26326 3.48287 6.84659 3.48287C6.09375 3.48287 5.43797 3.66989 4.87926 4.04395C4.32055 4.41326 3.88731 4.95304 3.57955 5.66326C3.27178 6.36876 3.1179 7.22576 3.1179 8.23429C3.1179 9.27122 3.27178 10.1424 3.57955 10.8479C3.89205 11.5534 4.32765 12.0861 4.88636 12.4459C5.44508 12.8058 6.09138 12.9857 6.82528 12.9857C7.23722 12.9857 7.61837 12.9313 7.96875 12.8224C8.32386 12.7135 8.63873 12.5548 8.91335 12.3465C9.18797 12.1334 9.41525 11.8754 9.59517 11.5724C9.77983 11.2693 9.90767 10.9237 9.97869 10.5354L13.0895 10.5496C13.009 11.2172 12.8078 11.8612 12.4858 12.4814C12.1686 13.097 11.7401 13.6486 11.2003 14.1363C10.6652 14.6192 10.026 15.0028 9.28267 15.2868C8.54403 15.5662 7.70833 15.7059 6.77557 15.7059C5.47822 15.7059 4.31818 15.4123 3.29545 14.8252C2.27746 14.2381 1.47254 13.3882 0.880682 12.2755C0.293561 11.1628 0 9.81573 0 8.23429C0 6.64811 0.298295 5.29868 0.894886 4.18599C1.49148 3.0733 2.30114 2.22576 3.32386 1.64338C4.34659 1.05626 5.49716 0.762695 6.77557 0.762695C7.61837 0.762695 8.39962 0.881067 9.11932 1.11781C9.84375 1.35455 10.4853 1.7002 11.044 2.15474C11.6027 2.60455 12.0573 3.15616 12.4077 3.80957C12.7628 4.46298 12.9901 5.21109 13.0895 6.05389Z" fill="#4DE785"/>
</svg>
